PathFileType	4	(X/Y/Z)	C:\Users\Basilio\Documents\Thesis Gigler\squatting_fais\c3dfiles\058\SJ_pre2\markers_experimental.trc
DataRate	CameraRate	NumFrames	NumMarkers	Units	OrigDataRate	OrigDataStartFrame	OrigNumFrames
200.000000	200.000000	4	61	mm	200.000000	636	1272
Frame#	Time	FHD			LBHD			RBHD			C7			T10			CLAV			LSHO			LUUPA			LMUPA			LDUPA			LLEP			LMEP			LRAD			LUL			LRFIN			RSHO			RUPA1			RMUPA			RDUPA			RLEP			RMEP			RRAD			RUL			RUFIN			LASI			RASI			USACR			LSACR			RSACR			LTHI1			LTHI2			LTHI3			LTHI4			LLFC			LMFC			LTIB1			LTIB2			LTIB3			LTIB4			LLMAL			LMMAL			LHEE			LMT1			LMT2			LMT5			RTHI			RTHI2			RTHI3			RTHI4			RLFC			RMFC			RTIB1			RTIB2			RTIB3			RTIB4			RLMAL			RMMAL			RHEE			RMT1			RMT2			RMT5			
		X1	Y1	Z1	X2	Y2	Z2	X3	Y3	Z3	X4	Y4	Z4	X5	Y5	Z5	X6	Y6	Z6	X7	Y7	Z7	X8	Y8	Z8	X9	Y9	Z9	X10	Y10	Z10	X11	Y11	Z11	X12	Y12	Z12	X13	Y13	Z13	X14	Y14	Z14	X15	Y15	Z15	X16	Y16	Z16	X17	Y17	Z17	X18	Y18	Z18	X19	Y19	Z19	X20	Y20	Z20	X21	Y21	Z21	X22	Y22	Z22	X23	Y23	Z23	X24	Y24	Z24	X25	Y25	Z25	X26	Y26	Z26	X27	Y27	Z27	X28	Y28	Z28	X29	Y29	Z29	X30	Y30	Z30	X31	Y31	Z31	X32	Y32	Z32	X33	Y33	Z33	X34	Y34	Z34	X35	Y35	Z35	X36	Y36	Z36	X37	Y37	Z37	X38	Y38	Z38	X39	Y39	Z39	X40	Y40	Z40	X41	Y41	Z41	X42	Y42	Z42	X43	Y43	Z43	X44	Y44	Z44	X45	Y45	Z45	X46	Y46	Z46	X47	Y47	Z47	X48	Y48	Z48	X49	Y49	Z49	X50	Y50	Z50	X51	Y51	Z51	X52	Y52	Z52	X53	Y53	Z53	X54	Y54	Z54	X55	Y55	Z55	X56	Y56	Z56	X57	Y57	Z57	X58	Y58	Z58	X59	Y59	Z59	X60	Y60	Z60	X61	Y61	Z61	

637	3.18	121.6916046142578	1033.742919921875	-812.2916259765627	-43.71380996704102	1006.9111328125	-878.0405273437502	126.3762817382813	1043.091552734375	-954.7651367187502	-88.58313751220705	947.0130615234377	-903.9333496093752	-350.6018981933594	811.4989013671877	-895.177429199219	-10.1946907043457	790.7854614257815	-880.653015136719	29.96117782592774	821.633483886719	-1045.093383789063	-111.3221282958985	846.7293701171877	-1226.860717773438	-133.6004791259766	801.591735839844	-1230.5498046875	-166.4620208740235	834.4654541015627	-1268.185180664063	-248.8531646728516	822.963317871094	-1306.76220703125	-284.2943725585938	880.906433105469	-1266.008911132813	-410.675018310547	727.2531738281251	-1101.944702148438	-430.3955078125001	665.0498046875001	-1150.431030273438	-361.7659301757813	685.1304931640626	-1075.852783203125	9.458988189697267	848.1609497070315	-715.8140869140626	-153.3839416503907	903.2398681640627	-569.2679443359376	-176.688232421875	858.493591308594	-564.4818725585939	-213.8309478759766	892.2395019531252	-533.1783447265626	-283.5499877929688	897.905212402344	-504.0938110351564	-330.0293273925782	938.6121826171877	-571.4373168945314	-397.722381591797	727.5971069335939	-686.1412963867189	-399.7164916992189	674.6228027343751	-624.9111328125001	-351.9992980957032	672.2103271484376	-715.3681640625001	-395.1940917968751	549.9938354492189	-1010.963745117188	-405.3931274414064	548.7589111328126	-778.8619384765627	-481.0180053710939	737.9989624023439	-892.0067138671877	-509.570037841797	720.9434814453126	-920.3686523437502	-511.5451660156251	719.9170532226564	-863.711120605469	-311.0618286132813	538.8588256835939	-1130.854370117188	-225.3691711425782	537.5778808593751	-1141.1728515625	-202.7950744628907	569.6544799804689	-1111.3701171875	-189.4219665527344	487.994110107422	-1150.658569335938	-115.0123519897461	447.3448791503907	-1152.38916015625	-89.45336914062501	430.1049804687501	-1028.084716796875	-96.92903137207034	312.7760925292969	-1119.66650390625	-166.2232208251953	313.3906555175782	-1173.034301757813	-135.296142578125	288.6909790039063	-1151.425415039063	-184.8055114746094	220.5748901367188	-1125.186157226563	-337.5121154785157	90.22451782226564	-1140.647094726563	-302.6576232910157	91.0890579223633	-1053.242797851563	-405.7935791015626	51.40173339843751	-1086.64306640625	-180.1225280761719	61.59602737426759	-1106.693481445313	-184.6082916259766	59.69672012329103	-1154.050537109375	-240.1261749267579	37.88657760620118	-1201.850341796875	-415.8288574218751	524.2299804687501	-669.3225708007814	-352.4832153320313	543.2384643554689	-657.8110961914064	-339.0023498535157	572.3348999023439	-663.9492797851564	-288.7239685058594	492.3941955566407	-644.6560058593751	-149.6703033447266	443.4280700683595	-623.4608154296876	-92.44126892089845	436.0402221679689	-749.9760742187501	-152.0257720947266	269.2453613281251	-704.2737426757814	-230.6828613281251	221.597640991211	-642.3649291992189	-199.7880401611329	200.4697723388672	-669.8450317382814	-224.8092041015626	163.7972564697266	-706.3773193359376	-330.9456787109376	95.44771575927736	-669.4561767578126	-282.7611389160157	95.33921813964845	-751.4295043945314	-392.9296264648439	52.48886871337892	-736.6495361328126	-181.7937316894532	52.62492752075197	-676.4859008789064	-195.9243927001954	61.97754287719728	-627.1058349609376	-253.0234527587891	31.22250556945801	-586.9146118164064	
638	3.185	121.8654861450196	1033.389282226563	-812.3128051757815	-43.48114395141602	1006.673400878906	-878.0269775390627	126.7539520263672	1042.848754882813	-954.6660766601565	-88.37841796875001	946.908874511719	-903.8548583984377	-350.3443908691407	811.508972167969	-895.1926269531252	-9.785301208496096	790.5364990234377	-880.6115722656252	30.13410949707032	821.4397583007815	-1045.020874023438	-110.9615097045899	846.586120605469	-1226.822998046875	-133.3658447265625	801.4288330078127	-1230.585815429688	-166.1967468261719	834.3335571289065	-1268.159912109375	-248.5099182128907	822.5697021484377	-1306.868408203125	-283.9998474121094	880.9343872070315	-1265.950073242188	-410.3201293945314	727.3369140625001	-1101.99951171875	-430.159637451172	665.1217651367189	-1150.416381835938	-361.6212768554688	685.1856689453126	-1075.836059570313	9.897337913513185	848.0918579101565	-715.7687988281251	-152.9509887695313	903.130798339844	-569.3391113281251	-176.5876159667969	858.3918457031252	-564.4913330078126	-213.3641510009766	892.068542480469	-533.2826538085939	-283.2232666015626	897.9664306640627	-504.0706787109376	-329.7093505859376	938.557067871094	-571.4476928710939	-397.666961669922	727.7272338867189	-686.1567993164064	-399.4894409179689	674.6726074218751	-624.9544677734376	-351.9197082519532	672.2415771484376	-715.3411865234376	-396.0830383300782	548.8923339843751	-1010.044921875	-406.0079345703126	549.1762695312501	-777.929626464844	-480.895233154297	738.0448608398439	-892.012390136719	-509.4777832031251	721.0127563476564	-920.4012451171877	-511.224090576172	720.4462280273439	-863.850524902344	-310.8695678710938	538.8121948242189	-1130.793090820313	-225.1145019531251	537.5726318359376	-1141.077880859375	-202.6621551513672	569.6192626953126	-1111.275268554688	-189.2864837646485	487.9499816894532	-1150.58203125	-114.8928527832032	447.3269958496095	-1152.318115234375	-88.89359283447267	430.2657470703126	-1027.844848632813	-96.89546966552737	312.7382812500001	-1119.585327148438	-166.2381591796875	313.3523254394532	-1173.039672851563	-135.300765991211	288.7028808593751	-1151.423217773438	-184.7837524414063	220.4706268310547	-1125.106811523438	-337.5053100585938	90.2210159301758	-1140.642333984375	-302.6723022460938	91.08494567871095	-1053.227661132813	-405.8217773437501	51.3903160095215	-1086.626708984375	-180.1429290771485	61.5835647583008	-1106.682250976563	-184.6009521484375	59.69707489013673	-1154.057739257813	-240.1696777343751	37.94664001464844	-1201.792846679688	-415.7453918457032	524.1398925781251	-669.3515625000001	-352.4455871582032	543.2271118164064	-657.8317260742189	-338.8044738769532	572.3557739257814	-663.9555053710939	-288.6095886230469	492.469451904297	-644.6515502929689	-149.6076049804688	443.4064941406251	-623.4296875000001	-92.18750762939455	436.0582885742189	-750.0173950195314	-151.9659423828125	269.2121887207032	-704.3659667968751	-230.6246337890626	221.5164947509766	-642.4046630859376	-199.6089324951172	200.3895721435547	-669.9092407226564	-224.8795013427735	163.6510620117188	-706.4219360351564	-330.8862915039063	95.42125701904298	-669.4777221679689	-282.7340393066407	95.30916595458986	-751.4896240234376	-392.8579101562501	52.50341033935548	-736.7205810546876	-181.7937469482422	52.640682220459	-676.4837646484376	-195.9016113281251	61.97581100463869	-627.1342773437501	-253.0035705566407	31.25449180603028	-586.9331054687501	
639	3.19	122.5105209350586	1033.133911132813	-812.3052368164065	-43.05213165283204	1006.520874023438	-878.065856933594	127.1027221679688	1042.551635742188	-954.719909667969	-88.01641845703126	946.7241210937502	-903.7683715820315	-350.0219421386719	811.5952148437502	-895.220642089844	-9.633936882019045	790.3211059570315	-880.549011230469	30.32807350158692	821.2264404296877	-1044.882202148438	-110.6058425903321	846.5216064453127	-1226.749877929688	-132.9892730712891	801.2879638671877	-1230.518920898438	-165.8490905761719	834.2673339843752	-1268.123168945313	-248.0120544433594	822.6987304687502	-1306.715576171875	-283.5072021484376	880.873962402344	-1266.021850585938	-410.260467529297	727.3352661132814	-1101.97412109375	-429.9578247070314	665.2203979492189	-1150.431274414063	-361.4312438964844	685.1166992187501	-1075.823364257813	10.13453960418701	847.7586059570315	-715.7599487304689	-152.6400299072266	902.9476318359377	-569.3381347656251	-176.2814636230469	858.5377197265627	-564.3502807617189	-213.0364532470704	891.8557739257815	-533.3217773437501	-282.9804992675782	897.9743652343752	-504.0903930664064	-329.3965454101563	938.5294189453127	-571.4367065429689	-397.4405212402345	727.8311767578126	-686.1616210937501	-399.4048156738282	674.7161865234376	-624.9314575195314	-351.8747558593751	672.2826538085939	-715.3912963867189	-396.2786865234376	548.8970336914064	-1010.295104980469	-406.091766357422	548.9948730468751	-778.1762695312502	-480.686981201172	738.1303710937501	-892.0579833984377	-509.386688232422	721.1214599609376	-920.417419433594	-511.1087646484376	720.5025634765626	-863.8828735351565	-310.7039184570313	538.8745727539064	-1130.711303710938	-225.0099639892579	537.7676391601564	-1140.992065429688	-202.5584411621094	569.6651611328126	-1111.248168945313	-189.1746673583985	487.9161682128907	-1150.524047851563	-114.7220993041992	447.8347778320314	-1152.136352539063	-88.83092498779298	430.0520019531251	-1027.772338867188	-96.764030456543	312.6403503417969	-1119.527709960938	-166.2956237792969	313.3510742187501	-1172.970947265625	-135.3133392333985	288.6687011718751	-1151.316284179688	-184.7593688964844	220.5243072509766	-1125.047119140625	-337.5545654296876	90.29361724853517	-1140.570190429688	-302.6714172363282	91.06591033935548	-1053.1953125	-405.805877685547	51.36583709716798	-1086.629760742188	-180.16943359375	61.58672332763673	-1106.6962890625	-184.6178588867188	59.71870040893556	-1154.05078125	-240.1723785400391	37.94911575317384	-1201.79345703125	-415.6222534179689	524.1836547851564	-669.3673095703126	-352.3348083496094	543.2427368164064	-657.8315429687501	-338.6672058105469	572.2944946289064	-663.9572143554689	-288.5365600585938	492.3374328613282	-644.6776123046876	-149.4715423583985	443.3925781250001	-623.5089111328126	-91.94055175781251	436.0916442871095	-750.2012939453126	-151.9682159423828	269.1438293457032	-704.3984985351564	-230.5695495605469	221.3777313232422	-642.4371948242189	-199.4512634277344	200.3621063232422	-670.0000610351564	-224.8164520263672	163.6462097167969	-706.5019531250001	-330.8822937011719	95.44362640380861	-669.5531005859376	-282.6925964355469	95.28010559082033	-751.5918579101564	-392.9179992675782	52.52440261840822	-736.7288818359376	-181.8208465576172	52.6181983947754	-676.5218505859376	-195.9059753417969	61.96691513061525	-627.1422729492189	-253.0006866455079	31.34158897399903	-586.9707031250001	
640	3.195	122.8041229248047	1032.7001953125	-812.3735351562502	-42.62410354614259	1006.439697265625	-878.1110839843752	127.5599060058594	1042.273559570313	-954.7832641601565	-87.37741851806642	946.4172973632815	-903.8446044921877	-349.8062133789063	811.630065917969	-895.1926879882815	-8.989376068115236	789.8015136718752	-880.609558105469	30.77114868164063	820.892272949219	-1044.901123046875	-110.2079620361328	846.487731933594	-1226.75244140625	-132.7883605957032	801.0463867187502	-1230.530029296875	-165.3986511230469	834.046569824219	-1268.158203125	-247.6235351562501	822.619812011719	-1306.619506835938	-283.0880737304688	880.829284667969	-1266.024169921875	-410.1180419921876	727.4959106445314	-1101.975952148438	-429.8187561035157	665.2942504882814	-1150.433837890625	-361.2866821289063	685.1720581054689	-1075.806762695313	10.37403392791748	847.3598632812502	-715.7127685546876	-152.5025024414063	902.7309570312502	-569.2599487304689	-175.8687744140625	858.1577758789065	-564.3274536132814	-212.7905578613282	891.8872680664065	-533.2569580078126	-282.5217895507813	898.0058593750002	-504.1854553222657	-329.0359802246094	938.5031738281252	-571.4609375000001	-397.3948669433595	728.0219726562501	-686.1985473632814	-399.3562316894532	674.7920532226564	-624.9168090820314	-351.6819458007813	672.2286376953126	-715.3059692382814	-395.8234863281251	550.0158081054689	-1011.857666015625	-404.8589477539064	548.5659790039064	-779.7131347656252	-480.4991760253907	738.1982421875001	-892.1079711914065	-509.2530517578126	721.2576293945314	-920.4639892578127	-510.7864074707032	720.2577514648439	-863.9210205078127	-310.5093688964844	538.8485107421876	-1130.666870117188	-224.8572387695313	537.7639770507814	-1140.85205078125	-202.1865234375001	569.6224365234376	-1111.1640625	-189.0313415527344	487.9091796875001	-1150.407470703125	-114.6061172485352	447.7636108398439	-1152.07470703125	-88.62872314453126	430.047088623047	-1027.599731445313	-96.65839385986331	312.6115112304688	-1119.4755859375	-166.2187194824219	313.3681640625001	-1172.859375	-135.2000122070313	288.5969238281251	-1151.27685546875	-184.7550048828125	220.5140533447266	-1125.054077148438	-337.6050109863282	90.29260253906251	-1140.541870117188	-302.6641845703126	91.04481506347658	-1053.178466796875	-405.7752685546876	51.36804580688478	-1086.616455078125	-180.1395111083985	61.58298110961915	-1106.67919921875	-184.6033020019532	59.6951026916504	-1154.06201171875	-240.2027435302735	37.98350906372071	-1201.757080078125	-415.5179443359376	524.2344970703126	-669.4182739257814	-352.2443847656251	543.1996459960939	-657.8800659179689	-338.2880554199219	572.3101806640626	-664.0547485351564	-288.3981018066407	492.311004638672	-644.6976928710939	-149.2551422119141	443.3013916015626	-623.5753173828126	-91.74817657470705	436.0720825195314	-750.3712158203126	-151.8978271484375	269.0122680664063	-704.4836425781251	-230.3918151855469	221.302719116211	-642.5260009765626	-199.4272003173829	200.3515777587891	-670.0855712890626	-224.7288360595704	163.6872711181641	-706.5739746093751	-330.8900756835938	95.41149902343751	-669.6057128906251	-282.6479492187501	95.22163391113283	-751.6215209960939	-392.8680114746095	52.46539688110353	-736.7509155273439	-181.8028411865235	52.55284500122072	-676.5227661132814	-195.9063262939454	61.99903869628908	-627.1843872070314	-253.0047454833985	31.32903099060059	-586.9933471679689	
